<svg height="379" viewBox="0 0 389.993 378.335" width="390" xmlns="http://www.w3.org/2000/svg"><path d="m7 359.619c1.711-25.774 31.584-57.236 59.901-66.413 24.264-7.864 98.795-11.709 98.795-11.709h62.406s106.649 5.938 125.798 20.156c25.464 18.906 29.095 57.967 29.095 57.967-60.369 30.17-343.716 19.135-375.994 0z" fill="#fff"/><path d="m382.986 366.62c-3.574 0-6.625-2.723-6.962-6.353-.034-.351-3.711-36.225-26.298-52.995-12.697-9.427-81.369-16.512-121.819-18.776h-62.027c-4.04.215-74.264 4.058-96.82 11.369-26.344 8.537-53.623 38.365-55.075 60.218-.256 3.858-3.604 6.773-7.448 6.521-3.857-.256-6.777-3.591-6.521-7.448 2.006-30.201 35.827-63.242 64.728-72.608 24.854-8.055 97.511-11.882 100.592-12.041.12-.006.24-.009.36-.009h62.406c.13 0 .26.003.39.011.269.015 27.192 1.533 56.109 4.779 59.987 6.734 70.137 14.27 73.472 16.746 27.654 20.532 31.731 61.217 31.892 62.939.358 3.85-2.473 7.26-6.322 7.618-.22.021-.438.031-.655.031z" fill="#231f20"/><path d="m164.774 253.009v28.488l-22.832 1.548c6.966 48.6 106.316 48.6 111.229.242l-24.327-1.791c0-16.997.167-29.178.167-29.178" fill="#fff"/><path d="m198.497 326.525c-27.994.001-59.275-13.115-63.484-42.486-.276-1.928.263-3.883 1.487-5.396s3.025-2.449 4.968-2.581l16.306-1.106v-21.946c0-3.866 3.134-7 7-7s7 3.134 7 7v28.488c0 3.682-2.853 6.735-6.526 6.984l-14.269.968c7.22 16.333 29.372 23.459 49.063 23.061 18.796-.387 38.438-7.633 44.453-22.841l-16.166-1.19c-3.657-.269-6.486-3.314-6.486-6.981 0-16.85.166-29.151.168-29.273.052-3.833 3.176-6.904 6.997-6.904h.098c3.866.053 6.957 3.23 6.903 7.095 0 .105-.125 9.263-.158 22.579l17.833 1.312c1.886.139 3.634 1.034 4.849 2.482s1.793 3.326 1.602 5.207c-2.902 28.576-32.128 41.942-59.804 42.511-.608.012-1.222.019-1.833.019z" fill="#231f20"/><path d="m198.699 351.117c-6.834 0-13.614-.524-20.146-1.571-40.813-6.541-66.508-30.417-68.732-63.868-.257-3.857 2.662-7.192 6.52-7.449 3.857-.264 7.192 2.662 7.449 6.52 2.61 39.243 44.272 48.938 56.979 50.974 38.58 6.188 77.623-7.691 87.021-30.933 1.449-3.584 5.533-5.314 9.113-3.866 3.584 1.45 5.314 5.53 3.865 9.114-11.105 27.466-47.253 41.08-82.07 41.08z" fill="#231f20"/><path d="m164.774 253.009c-49.854-.69-51.71-48.076-51.71-48.076s-23.773-10.289-26.211-32.807c-16.903 0-27.852-31.269-12.051-50.363 0 0-12.563-39.383 14.488-51.956 0 0 14.25-42.262 54.365-35.131 0 0 6.245-30.104 38.182-21.124h18.099s22.423-16.988 39.875 9.583c23.458-4 48.323 8.134 53.735 37.051 13.133 1.703 17.433 13.539 15.345 22.195 19.282 9.562 20.546 31.767 9.982 44.873 10.986 17.66-2.5 42.525-20.497 44.873-2.064 12.907-12.347 20.571-24.095 20.571 4.161 47.885-34.469 68.536-109.507 60.312z" fill="#fff"/><g fill="#231f20"><path d="m164.782 260.009c-.24 0-.481-.012-.725-.037-34.146-3.51-57.993-26.144-57.993-55.04v-27.332c0-3.866 3.134-7 7-7s7 3.134 7 7v27.332c0 21.798 18.255 38.32 45.425 41.113 3.846.396 6.643 3.833 6.247 7.679-.37 3.603-3.41 6.285-6.954 6.285z"/><path d="m199.933 262.155c-3.791 0-6.906-3.027-6.995-6.837-.09-3.865 2.971-7.071 6.835-7.161 32.011-.744 66.464-12.493 66.464-36.529v-23.833c0-3.866 3.134-7 7-7s7 3.134 7 7v23.833c0 15.73-9.069 28.896-26.228 38.073-14.114 7.549-33.261 11.972-53.91 12.452-.056.001-.111.002-.166.002z"/><path d="m281.509 199.698c-2.578 0-5.058-1.43-6.278-3.897-1.715-3.465-.296-7.664 3.169-9.378 10.764-5.327 15.685-18.632 14.982-29.023-.372-5.489-2.239-8.53-3.447-8.937-.978-.328-4.92.457-11.418 7.919-2.415 2.772-6.562 3.206-9.496.99-.672-.507-16.45-12.653-15.573-32.803.167-3.862 3.445-6.867 7.297-6.689 3.862.168 6.857 3.435 6.689 7.297-.312 7.199 2.928 12.975 5.806 16.637 9.135-8.09 16.4-8.224 21.158-6.622 7.378 2.482 12.22 10.43 12.952 21.262.985 14.569-5.711 34.088-22.741 42.516-.998.494-2.057.728-3.1.728z"/><path d="m113.065 211.935c-.74 0-1.492-.118-2.232-.367-20.516-6.899-29.4-26.688-30.775-41.539-1.208-13.041 2.828-23.482 10.797-27.929 5.193-2.898 13.992-4.389 26.419 4.961 3.089 2.324 3.709 6.713 1.385 9.802-2.325 3.09-6.712 3.71-9.803 1.385-4.856-3.654-9.037-5.119-11.179-3.922-2.369 1.322-4.394 6.697-3.679 14.413 1.065 11.507 8.063 25.109 21.298 29.56 3.664 1.232 5.636 5.202 4.403 8.866-.983 2.924-3.71 4.771-6.634 4.771z"/><path d="m113.059 159.655c-3.116 0-5.959-2.096-6.773-5.252-.966-3.744 1.286-7.561 5.029-8.527 15.779-4.072 16.446-19.323 16.47-21.049.054-3.83 3.175-6.928 6.999-6.928h.05c3.847.027 6.951 3.127 6.951 6.975 0 9.546-5.637 29.053-26.972 34.558-.587.151-1.175.224-1.754.224z"/><path d="m154.548 131.876c-3.205 0-6.097-2.216-6.824-5.475-.844-3.773 1.531-7.515 5.305-8.358 6.402-1.431 10.148-6.984 11.52-11.704 1.48-5.093.649-10.171-2.116-12.936-2.733-2.734-2.733-7.166 0-9.899 2.734-2.734 7.167-2.733 9.899 0 6.419 6.419 8.588 16.666 5.66 26.742-3.175 10.926-11.57 19.15-21.911 21.461-.514.115-1.027.17-1.533.17z"/><path d="m201.222 117.404c-1.192 0-2.401-.305-3.507-.947-3.344-1.94-4.481-6.225-2.54-9.568 1.066-1.838 2.159-4.57 1.303-7.14-.931-2.792-3.812-4.519-6.064-5.476-3.559-1.511-5.218-5.621-3.707-9.179 1.513-3.559 5.625-5.218 9.18-3.707 6.934 2.945 11.86 7.894 13.873 13.936 1.956 5.869 1.076 12.472-2.477 18.593-1.298 2.238-3.646 3.487-6.061 3.487z"/><path d="m238.428 132.415c-1.525 0-3.061-.497-4.349-1.519-3.027-2.404-3.532-6.808-1.128-9.835 1.679-2.115 2.162-5.065 1.437-8.769-1.349-6.876-6.706-14.502-12.461-17.739-3.369-1.895-4.564-6.163-2.67-9.533 1.896-3.37 6.162-4.566 9.533-2.669 9.26 5.208 17.211 16.412 19.336 27.247 1.529 7.799.073 14.773-4.212 20.169-1.382 1.74-3.424 2.647-5.486 2.647z"/><path d="m89.411 94.831c-3.668 0-6.749-2.855-6.979-6.566-1.326-21.369 7.021-40.349 22.904-52.072 10.062-7.427 22.134-10.968 32.668-9.926 1.812-5.732 5.407-10.553 10.64-14.186 10.424-7.237 26.212-8.304 35.452-5.156 3.659 1.247 5.615 5.224 4.368 8.884s-5.228 5.613-8.884 4.368c-4.95-1.688-15.971-1.444-22.952 3.404-3.88 2.693-5.835 6.388-5.976 11.294-.064 2.262-1.22 4.354-3.1 5.614-1.879 1.26-4.252 1.533-6.37.734-7.555-2.853-18.619-.348-27.532 6.232-7.044 5.199-18.65 17.302-17.246 39.941.239 3.858-2.694 7.181-6.553 7.42-.147.009-.295.014-.44.014z"/><path d="m86.862 179.127c-.312 0-.627-.021-.944-.064-10.951-1.477-19.548-8.763-23.586-19.988-4.555-12.66-2.621-28.051 4.452-38.433-4.181-11.599-3.862-24.112.988-35.676 4.326-10.312 12.203-19.256 19.156-21.749 3.64-1.303 7.647.588 8.951 4.227 1.305 3.639-.587 7.647-4.227 8.952-2.029.728-7.506 5.727-10.97 13.985-2.748 6.551-4.896 16.804.476 28.45 1.186 2.571.706 5.604-1.216 7.683-5.831 6.31-7.78 18.53-4.438 27.822 1.586 4.409 5.004 9.871 12.283 10.853 3.832.517 6.519 4.042 6.002 7.873-.475 3.514-3.479 6.065-6.929 6.065z"/><path d="m242.548 38.269c-3.191 0-6.074-2.195-6.817-5.438-2.228-9.721-7.521-16.186-14.902-18.204-5.829-1.593-12.18-.089-15.813 3.741-2.66 2.805-7.091 2.921-9.896.26-2.804-2.661-2.921-7.091-.26-9.896 7.194-7.582 18.84-10.567 29.661-7.61 12.412 3.394 21.472 13.811 24.857 28.581.863 3.769-1.491 7.523-5.26 8.387-.525.121-1.052.178-1.569.178z"/><path d="m304.77 98.942c-1.613 0-3.233-.554-4.554-1.686-2.935-2.517-3.273-6.936-.757-9.871 2.125-2.479 3.433-10.169.884-15.713-1.829-3.977-4.594-4.487-6.798-4.487-3.294 0-6.143-2.296-6.841-5.516-3.522-16.233-13.714-24.42-21.644-28.43-10.185-5.15-19.608-4.961-22.391-3.716-3.531 1.58-7.67-.001-9.249-3.53s.002-7.669 3.53-9.249c8.28-3.707 22.438-2.062 34.427 4.001 13.578 6.866 23.292 18.513 27.749 33.116 6.139 1.553 11.067 5.725 13.936 11.961 4.489 9.765 3.154 23.526-2.977 30.675-1.384 1.614-3.345 2.443-5.316 2.443z"/><path d="m298.367 179.127c-3.32 0-6.268-2.371-6.88-5.753-.689-3.804 1.836-7.447 5.64-8.136 5.351-.97 12.72-5.999 16.451-13.733 3.256-6.75 2.962-13.796-.874-20.941-1.312-2.445-1.057-5.435.652-7.622 5.857-7.494 4.942-15.466 3.875-19.552-1.741-6.668-6.18-12.517-11.044-14.554-3.566-1.493-5.247-5.594-3.754-9.16s5.597-5.246 9.16-3.754c8.958 3.75 16.309 12.92 19.184 23.93 2.584 9.893 1.205 19.699-3.863 28.054 4.046 9.858 3.82 20.253-.727 29.68-5.252 10.889-15.928 19.5-26.564 21.427-.422.077-.842.113-1.256.113z"/><circle cx="170.293" cy="149.898" r="6.876"/><circle cx="222.359" cy="149.898" r="6.876"/><path d="m196.913 220.502c-11.226 0-23.697-3.763-30.314-12.948-2.26-3.137-1.549-7.512 1.588-9.771 3.139-2.26 7.512-1.548 9.771 1.588 3.765 5.226 13.56 8.109 23.292 6.862 6.812-.875 12.075-3.666 13.407-7.111 1.394-3.605 5.443-5.402 9.054-4.005 3.605 1.395 5.398 5.448 4.005 9.053-3.256 8.42-12.482 14.383-24.683 15.949-1.966.252-4.021.384-6.12.384z"/></g></svg>