<svg xmlns="http://www.w3.org/2000/svg" viewBox="0 0 3000 3000" width="3000" height="3000"><g transform="translate(1872.0 314.0) rotate(0.0 -814.0 1129.0) scale(-1.9969432539380751 1.9947648465541719)"><svg width="815.246" height="1131.963" viewBox="0 0 815.246 1131.963"><path d="m548.722 1121.62 81.508-48.504c11.821-7.034 8.66-24.954-4.854-27.52l-435.238-82.64-99.486 58.492 458.069 100.173z" fill="#231f20" opacity=".5"/><path d="M815.141 100.036a38.278 38.278 0 0 0-.961-6.193 37.249 37.249 0 0 0-1.917-5.815l-16.978-40.066c.802 1.892-12.734-11.947-14.548-12.983-4.98-2.845-95.918-9.904-98.169-9.959-7.707-.188-241.242-13.699-337.742-19.293-24.159-1.4-46.167 13.822-53.385 36.92L5.402 958.098c-7.759 24.832 7.124 51.04 32.428 57.088 118.091 28.225 418.51 100.056 412.227 98.822l55.001 16.911c7.668 1.522 15.395 1.342 22.799-.291 7.412-1.634 14.495-4.722 20.864-9.008a64.562 64.562 0 0 0 16.58-16.192 64.082 64.082 0 0 0 9.973-21.78l238.689-970.371c.56-2.277.932-4.528 1.125-6.739a40.63 40.63 0 0 0 .052-6.501z" fill="#231f20"/><path d="M540.939 28.838c1.95.114 3.706.589 5.211 1.351s2.762 1.812 3.711 3.074c.95 1.263 1.592 2.738 1.872 4.352s.195 3.367-.31 5.182-1.384 3.525-2.539 5.057-2.588 2.888-4.202 4.001-3.409 1.984-5.29 2.546c-1.88.562-3.845.815-5.799.695-1.951-.12-3.707-.603-5.21-1.373s-2.753-1.825-3.695-3.092-1.577-2.744-1.848-4.357-.18-3.362.329-5.172c.509-1.808 1.387-3.507 2.54-5.031 1.153-1.523 2.58-2.872 4.187-3.981s3.394-1.978 5.265-2.542c1.872-.564 3.829-.822 5.776-.708z" fill="#1e65fd"/><path d="M737.624 43.899c5.476.322 10.442 1.636 14.734 3.738 4.3 2.106 7.924 5.002 10.707 8.487a28.536 28.536 0 0 1 5.662 12.03c.933 4.468.85 9.319-.417 14.344l-236.047 936.473a49.765 49.765 0 0 1-7.78 16.771 50.588 50.588 0 0 1-12.847 12.513c-4.928 3.324-10.402 5.733-16.126 7.03-5.719 1.296-11.684 1.48-17.6.358L63.28 977.037c-5.298-1.004-9.983-3.135-13.918-6.124-3.928-2.984-7.109-6.825-9.407-11.255-2.294-4.423-3.708-9.435-4.11-14.774s.208-10.988 1.96-16.714L305.524 53.192c1.445-4.724 3.819-9.156 6.875-13.13s6.79-7.487 10.963-10.376c4.174-2.889 8.787-5.155 13.593-6.625 4.81-1.471 9.817-2.147 14.776-1.856l49.789 2.928 80.467 4.732 15.566.915c9.921.583 13.181 5.005 13.277 14.625.17 15.058 12.805 21.19 26.377 18.655 13.264-2.477 21.318-10.233 27.838-21.412l.017-.029c.655-1.124 1.263-1.818 2.174-2.759 5.262-5.434 16.474-4.013 24.312-3.552l33.375 1.963 81.97 4.82 30.731 1.807z" fill="#e6ecf4"/><path d="m776.755 101.488-232.66 928.63 232.67-928.609-.01-.02zm-243.95 968.041c.01-.01.01-.02.021-.03l.24-.48c-.09.17-.17.34-.26.5v.01zm-1.09 1.97c.04-.07.08-.15.13-.22.14-.24.28-.49.41-.74.19-.33.37-.67.55-1.01-.23.438-.472.87-.713 1.301l-.376.669zm-2.26 3.51c.1-.12.18-.24.26-.36h-.01c-.08.12-.16.24-.25.36zm-26.82 19.209c.24-.07.49-.14.73-.22l-.83.24c.03 0 .07-.01.1-.02zm-5.75 1.201c.17-.03.34-.05.51-.08h-.05c-.15.03-.3.05-.46.08zm301.37-1034.12c-.02-.39-.04-.78-.07-1.17-.03-.45-.07-.89-.12-1.33-.01-.13-.02-.26-.05-.39-.04-.44-.1-.88-.17-1.31-.01-.12-.03-.23-.05-.34-.06-.41-.13-.82-.21-1.22-.07-.37-.15-.74-.24-1.11a31.45 31.45 0 0 0-.83-3.11c-.08-.26-.16-.52-.25-.78-.13-.39-.27-.77-.41-1.15-.12-.32-.24-.64-.37-.95 0-.01 0-.02-.01-.02-.06-.16-.13-.31-.19-.46a37.596 37.596 0 0 0-5.37-8.94c-3.68-4.55-8.45-8.33-14.12-11.07-5.64-2.73-12.17-4.43-19.36-4.83L345.895.078c-6.48-.36-13.01.53-19.28 2.46s-12.29 4.89-17.73 8.66c-5.45 3.78-10.33 8.36-14.32 13.54s-7.1 10.96-9 17.12l-71.19 230.64-32.34 104.77-179.23 580.68c-2.33 7.53-3.16 14.98-2.67 22.01.49 7.04 2.31 13.66 5.28 19.51 2.98 5.86 7.12 10.95 12.25 14.92.92.71 1.88 1.39 2.87 2.03l.37.24c.4.26.81.51 1.22.75.08.04.16.09.24.14.49.28.99.55 1.49.82.06.03.11.06.17.09 1.21.63 2.45 1.2 3.73 1.72.08.03.17.07.25.1l.72.27c.97.37 1.97.71 2.98 1.01.16.05.31.09.47.13.31.09.62.18.93.25.91.24 1.83.46 2.77.64l29.61 5.82 5.66 1.11 408.06 80.15c7.11 1.4 14.28 1.36 21.21.06.68-.12 1.36-.26 2.04-.41 6.36-1.41 12.49-3.87 18.14-7.23 1.08-.64 2.13-1.3 3.17-2 6.51-4.39 12.3-9.99 16.96-16.55 3.13-4.39 5.76-9.21 7.75-14.38.99-2.53 1.82-5.16 2.49-7.85l2.46-9.89 2.52-10.13 229.3-920.689 1.61-6.45 5.49-22.07 1.83-7.35.74-2.96 2.04-8.19c.13-.53.26-1.07.37-1.6.03-.14.06-.28.08-.42.1-.47.19-.94.27-1.41v-.04c.07-.4.14-.8.19-1.2l.09-.69c.02-.11.03-.22.04-.33.05-.39.09-.77.12-1.15.03-.32.05-.63.07-.95.02-.19.03-.39.04-.58.01-.27.03-.53.03-.8.04-1.05.04-2.08 0-3.1zm-15.18-6.931c.13.34.26.67.37 1.01.05.16.11.31.15.47.13.38.24.77.35 1.16.13.49.26.98.36 1.48l.03.12c0 .02.01.03.01.05.04.17.07.35.11.53a30.121 30.121 0 0 1 .5 6.67c0 .14-.01.29-.02.44v.01c-.02.41-.05.83-.09 1.25-.03.38-.07.76-.12 1.15 0 .04-.01.09-.02.14-.03.28-.07.57-.12.86l-.03.18c0 .02 0 .03-.01.05-.03.23-.07.45-.12.68 0 .04-.01.08-.02.11-.06.34-.13.67-.21 1.01-.07.34-.15.68-.24 1.02l-1.13 4.5-3.4 13.59-.01.02-.35 1.41v.01l-.37 1.46-1.94 7.74-232.66 928.63-7.15 28.54c-.12.48-.25.95-.38 1.42-.14.5-.29 1-.45 1.5-.14.43-.28.86-.43 1.29-.32.92-.66 1.83-1.04 2.72-.18.45-.37.89-.57 1.32-.08.19-.16.37-.25.55-.06.13-.12.27-.19.4-.05.12-.11.24-.17.36-.05.09-.09.18-.14.28-.08.17-.17.35-.26.52s-.17.34-.26.5v.01c-.23.438-.472.87-.713 1.301l-.376.669c-.01.01-.02.03-.02.04l-.24.39c-.15.25-.3.51-.46.76-.16.27-.33.53-.5.79-.26.4-.52.79-.78 1.17h-.01c-.08.12-.16.24-.25.36-.07.12-.16.23-.24.35-.34.47-.68.94-1.03 1.4-.24.32-.49.63-.74.94-.61.76-1.24 1.5-1.9 2.22-.3.34-.62.68-.95 1.02-.32.34-.64.67-.979 1-.33.33-.67.65-1.01.97-.57.53-1.15 1.04-1.74 1.54-.23.21-.47.4-.71.6-.91.74-1.84 1.46-2.8 2.13-.28.2-.56.39-.84.58-.02.02-.05.03-.07.05-.92.62-1.86 1.21-2.81 1.76-.37.21-.73.41-1.1.61-.28.16-.56.31-.84.45-.28.15-.58.3-.87.44-.65.33-1.31.64-1.98.93l-.15.06c-.41.18-.81.35-1.22.51-.06.03-.11.05-.16.07-.14.05-.27.1-.4.15-.38.15-.76.29-1.14.43-.04.01-.08.02-.11.04-.35.12-.69.24-1.04.35-.3.1-.61.19-.91.29-.12.03-.23.07-.35.1l-.83.24c-.23.07-.47.14-.71.19-.11.03-.23.06-.35.09-.04.01-.08.02-.13.03-.27.07-.55.13-.82.19l-.11.03-.14.03c-.34.08-.69.15-1.03.22-.39.07-.79.15-1.18.21-.22.04-.44.08-.67.11h-.05c-.15.03-.3.05-.46.08-.21.02-.43.05-.64.08-.04.01-.08.01-.12.02-.41.05-.83.09-1.25.13-.43.04-.87.08-1.31.1-.43.03-.87.05-1.31.06a41.958 41.958 0 0 1-7.54-.43c-.6-.09-1.2-.19-1.79-.31l-433.5-84.3-9.39-1.83h-.02a38.473 38.473 0 0 1-2.87-.69c-.11-.03-.22-.07-.33-.1-.51-.15-1.02-.31-1.51-.49-.37-.13-.74-.26-1.1-.41-.23-.08-.45-.17-.67-.271-1.28-.53-2.5-1.13-3.66-1.8-.17-.1-.33-.19-.5-.29-.27-.17-.55-.34-.81-.51-.26-.16-.52-.33-.77-.51-.51-.35-1.01-.71-1.49-1.08a.304.304 0 0 0-.07-.05c-.46-.36-.91-.73-1.35-1.11-.46-.4-.91-.81-1.34-1.23-.43-.41-.84-.84-1.24-1.28-.03-.03-.06-.06-.08-.09-.37-.39-.72-.8-1.06-1.22a24.66 24.66 0 0 1-1.47-1.9c-.17-.24-.34-.48-.5-.72-.34-.5-.67-1.01-.98-1.53-.23-.37-.44-.75-.65-1.13-.18-.32-.35-.64-.52-.97-.06-.11-.11-.22-.16-.33-.22-.44-.43-.88-.63-1.33-.39-.86-.74-1.74-1.06-2.64-.07-.19-.14-.39-.21-.59-.06-.17-.11-.35-.17-.52l-.21-.69c-.1-.3-.18-.61-.27-.92-.07-.26-.14-.52-.2-.78-.09-.36-.18-.72-.26-1.09-.09-.4-.17-.8-.25-1.21-.06-.34-.12-.68-.17-1.02-.04-.21-.07-.42-.1-.64-.02-.12-.04-.25-.06-.38-.04-.27-.07-.54-.1-.81-.03-.25-.06-.51-.08-.77-.04-.33-.07-.66-.09-.99-.07-1.02-.11-2.04-.11-3.08 0-.44.01-.87.02-1.31.01-.11.01-.22.01-.33.02-.5.05-.99.09-1.49 0-.06.01-.12.01-.18.04-.54.1-1.09.16-1.64.19-1.69.49-3.4.88-5.12.26-1.15.57-2.3.92-3.45l178.828-581.908 31.99-104.09 71.2-231.68c1.43-4.64 3.77-9.01 6.79-12.92 3.01-3.91 6.7-7.38 10.82-10.23 4.11-2.85 8.66-5.09 13.39-6.54 4.74-1.46 9.67-2.13 14.55-1.85l410.91 23.65c.34.02.67.04 1.01.07.21.01.42.03.63.06.32.02.63.06.94.1.37.04.74.09 1.11.14.47.07.93.15 1.38.23.41.07.811.15 1.2.24h.04c.35.08.69.16 1.03.25.75.17 1.47.37 2.18.6.3.09.59.18.87.28.4.13.79.27 1.18.41a9 9 0 0 1 .55.22c.84.33 1.66.69 2.46 1.08.04.02.07.04.11.06.5.24.98.49 1.46.76.43.23.85.48 1.26.74a36.208 36.208 0 0 1 1.63 1.06c.02.021.03.03.05.04.4.28.79.57 1.17.87.06.05.13.09.19.15h.01q.01.01.01.02a24.544 24.544 0 0 1 1.28 1.07s0-.01.01 0c.37.32.73.66 1.08 1.01.08.07.15.14.21.21.38.37.74.74 1.08 1.13.37.4.72.81 1.06 1.23 0 .01.01.02.02.03l.24.3c.18.23.36.47.53.71.18.24.36.479.52.729.24.34.47.7.7 1.06.36.58.71 1.18 1.03 1.79l.12.24a26.239 26.239 0 0 1 .91 1.97c.05.1.09.19.12.28.08.19.15.37.21.55z" fill="#fd98a4"/><path d="m479.201 1109.659-443.323-87.08a45.818 45.818 0 0 1-4.17-1.024 43.275 43.275 0 0 1-7.683-3.097 42.075 42.075 0 0 1-3.494-2.036l33.876 21.969c1.109.719 2.257 1.389 3.444 2.007s2.411 1.184 3.672 1.695 2.559.967 3.892 1.365 2.701.737 4.103 1.015l435.54 86.446z" fill="#1e65fd"/><path d="m479.201 1109.659 25.857 21.26-435.54-86.445-33.64-21.895z" fill="none"/><path d="m306.573 1081.132-95.867-19.027 11.305 5.201a57.107 57.107 0 0 0 3.952 1.623c1.439.535 2.983 1.058 4.577 1.553s3.24.961 4.882 1.383 3.284.799 4.868 1.114l55.27 11.005c1.606.32 3.078.562 4.385.727s2.449.252 3.393.261c.945.009 1.691-.061 2.208-.209s.803-.375.826-.682l.2-2.95z" fill="#231f20"/><path d="m796.955 73.567 17.008 39.71-238.689 970.371-24.304-22.348z" fill="none"/><path d="M709.02 486.06c-.501-.863-1.074-1.308-1.681-1.372s-1.249.253-1.887.913-1.273 1.664-1.866 2.971-1.145 2.921-1.616 4.798l-15.125 60.269c-.478 1.905-.829 3.89-1.053 5.848s-.322 3.887-.295 5.681.179 3.451.453 4.867.671 2.587 1.189 3.412 1.105 1.221 1.726 1.236 1.274-.352 1.922-1.058 1.289-1.75 1.887-3.092 1.152-2.978 1.625-4.871l14.959-59.886c.466-1.865.809-3.815 1.03-5.743s.32-3.836.299-5.618-.163-3.441-.425-4.868c-.262-1.428-.643-2.626-1.143-3.488zm49.442-197.474c-.464-.947-.998-1.488-1.565-1.654s-1.17.042-1.77.593-1.2 1.447-1.762 2.653c-.562 1.207-1.087 2.726-1.537 4.522l-38.083 151.751c-.467 1.86-.81 3.811-1.032 5.746s-.321 3.853-.3 5.648.163 3.464.425 4.903c.261 1.438.641 2.646 1.138 3.518s1.063 1.322 1.662 1.395 1.23-.233 1.857-.878 1.249-1.629 1.83-2.914 1.12-2.869 1.582-4.718l37.676-150.826c.446-1.786.777-3.676.994-5.566.217-1.889.32-3.779.309-5.563-.011-1.785-.135-3.465-.372-4.935s-.588-2.732-1.051-3.677z" fill="#fd98a4"/><g fill="#231f20" opacity=".5"><path d="M713.02 488.06c-.501-.863-1.074-1.308-1.681-1.372s-1.249.253-1.887.913-1.273 1.664-1.866 2.971-1.145 2.921-1.616 4.798l-15.125 60.269c-.478 1.905-.829 3.89-1.053 5.848s-.322 3.887-.295 5.681.179 3.451.453 4.867.671 2.587 1.189 3.412 1.105 1.221 1.726 1.236 1.274-.352 1.922-1.058 1.289-1.75 1.887-3.092 1.152-2.978 1.625-4.871l14.959-59.886c.466-1.865.809-3.815 1.03-5.743s.32-3.836.299-5.618-.163-3.441-.425-4.868c-.262-1.428-.643-2.626-1.143-3.488m49.443-197.473c-.464-.947-.998-1.488-1.565-1.654s-1.17.042-1.77.593-1.2 1.447-1.762 2.653c-.562 1.207-1.087 2.726-1.537 4.522l-38.083 151.751c-.467 1.86-.81 3.811-1.032 5.746s-.321 3.853-.3 5.648.163 3.464.425 4.903c.261 1.438.641 2.646 1.138 3.518s1.063 1.322 1.662 1.395 1.23-.233 1.857-.878 1.249-1.629 1.83-2.914 1.12-2.869 1.582-4.718l37.676-150.826c.446-1.786.777-3.676.994-5.566.217-1.889.32-3.779.309-5.563-.011-1.785-.135-3.465-.372-4.935s-.588-2.732-1.051-3.677"/></g></svg></g><g transform="translate(418.0 726.0) rotate(0.0 1218.0 1044.0) scale(1.9964431185818368 1.9943702976368434)"><svg width="1220.17" height="1046.947" viewBox="0 0 1220.17 1046.947"><g fill="#9fc7fe"><path d="m542.8 244.067-.05-.17-.18-.55-170 42 74.11 28.05-305.11 88.95 243 77 211.52-61.12zM299.215 45.498l-165.492-21L235.217 0l145.994 19.999zm920.955 822.959-382.98 178.49-77.86-26.8-563.52-203.3-41.89-166.2-5.59-22.19-35.62-141.31 1057.66 364.98z"/></g><path d="m966.75 920.447-23.72 11.83 63.32 22.6 23.72-11.83zm-102.29-36.51-23.72 11.84 63.32 22.6 23.72-11.84zm-102.28-36.51-23.73 11.84 63.32 22.6 23.73-11.84zm-102.29-36.5-23.72 11.83 63.32 22.6 23.72-11.83zm-102.29-36.51-23.72 11.84 63.32 22.6 23.72-11.84zm-102.28-36.51-23.73 11.84 63.32 22.6 23.73-11.84zm-102.29-36.5-23.72 11.83 63.32 22.6 23.72-11.83zm-102.29-36.51-23.72 11.84 63.32 22.6 23.72-11.84zm-102.28-36.51-.13.07 5.59 22.19 34.13 12.18 23.73-11.84z" fill="#e6ecf4"/><path d="M520.99 172.797c-3.75 3.83-8.76 6.78-15.03 8.28L62.31 287.167l-8.68-34.4-.13-.53-4.4-17.43-.04-.17v-.01l-.021-.08-1.56-6.21 339.27-75.94c9.49-2.12 8.96-15.82-.66-17.21L10.28 80.747l-4.64-18.39-.85-3.37L0 39.977l503.7 80.95c.51.08 1.01.17 1.51.28z" fill="#9fc7fe"/><path d="m81.68 245.727-28.18 6.51.13.53 14.06 3.45 29.24-6.74zm48.72-11.24-29.23 6.74 15.24 3.75 29.24-6.75zm48.72-11.24-29.24 6.74 15.25 3.75 29.24-6.75zm48.72-11.25-29.24 6.75 15.25 3.74 29.229-6.74-15.24-3.75zm48.72-11.24-29.24 6.75 15.25 3.74 29.23-6.75zm48.72-11.24-29.24 6.74 15.25 3.75 29.23-6.75zm48.71-11.25-29.23 6.75 15.25 3.74 29.23-6.74z" fill="#e6ecf4"/><path d="m388.57 309.347-273 79-30.56-11.11-16.63-65.94 187.19-48.95z" fill="#fefdfd"/><path d="m8.8 57.417-4.01 1.57.85 3.37 22.81 3.38 10.03-3.92zm346.21 51.37-10.03 3.92 29.68 4.41 10.03-3.93zm-49.46-7.34-10.02 3.92 29.67 4.41 10.03-3.93zm-49.46-7.34-10.02 3.92 29.67 4.41 10.03-3.93zm-49.45-7.34-10.03 3.93 29.67 4.4 10.03-3.92zm-49.46-7.34-10.03 3.93 29.67 4.4 10.03-3.92zm-49.46-7.34-10.03 3.93 29.68 4.4 10.02-3.92zm-49.46-7.33-10.03 3.92 29.68 4.4 10.03-3.92z" fill="#e6ecf4"/><path d="m303.01 151.827-158.58 34.27-102.04 22.05L17 107.427l221.33 34.36z" fill="#9fc7fe"/><path d="m492.16 78.577-163.45-26.08 142.28-41.65 1.23 2.58.01.03.01.02z" fill="#fefdfd"/><path d="m409.46 117.957-10.77 4.51 31.68 5.52 10.77-4.51zm69.76 23.45c-.62-8.38-9.62-10.22-14.92-11.86l-11.22 4.72c7 2.73 17.08 3.35 12.95 10.57-3.52 6.16-17.08 10.38-24.1 12.79l14.34 4.1c9.83-3.37 23.7-10.12 22.95-20.32zm-55.62 23.04-31.3 7.26 15.33 3.39 31.31-7.27z" fill="#e6ecf4"/></svg></g><g transform="translate(1020.0 1288.0) rotate(0.0 810.0 690.0) scale(2.0024350599185428 2.0026586018540558)"><svg width="809.015" height="689.084" viewBox="0 0 809.015 689.084"><path d="m0 514.786 406.606 168.898 325.99-141.914-422.288-147.059zM694.756 233.36c-8.986-13.898-19.113-29.064-29.583-43.814-10.431-14.695-21.195-28.966-31.506-41.155-10.268-12.139-20.084-22.208-28.677-28.578-6.922-5.132-15.179-10.182-24.166-15.042-8.943-4.836-18.599-9.479-28.377-13.826-9.725-4.324-19.57-8.354-28.963-11.997a848.177 848.177 0 0 0-26.149-9.633 61.658 61.658 0 0 0-1.018-.343 33.101 33.101 0 0 0-1.015-.315 40.565 40.565 0 0 0-5.013-1.154 36.989 36.989 0 0 0-4.908-.473 34.51 34.51 0 0 0-4.774.192c-1.56.172-3.094.452-4.598.837a33.53 33.53 0 0 0-7.935 3.157 36.917 36.917 0 0 0-7.14 5.181c-2.225 2.051-4.292 4.423-6.171 7.102-1.876 2.675-3.565 5.655-5.04 8.928l-34.26 75.995 302.05 101.184a1652.934 1652.934 0 0 0-22.758-36.246z" fill="#231f20" opacity=".5"/><path d="M763.013 284.848a822.456 822.456 0 0 0-6.975-11.058c-2.346-3.659-4.71-7.295-7.079-10.91a3111.592 3111.592 0 0 0-7.1-10.774c-2.36-3.569-4.711-7.118-7.038-10.651-16.029-24.33-32.424-47.935-49.378-70.046-16.848-21.972-34.226-42.441-52.309-60.638-17.942-18.055-36.544-33.841-55.96-46.607-19.224-12.64-39.2-22.291-60.056-28.235L391.041 0l-10.242 54.93 47.559-11.242-24.177 83.351c-1.006 3.461-2.269 6.619-3.751 9.45-1.48 2.826-3.18 5.327-5.063 7.479-1.88 2.148-3.943 3.949-6.154 5.379a24.916 24.916 0 0 1-7.028 3.157l-7.871 2.136 41.15 13.78 34.26-75.995c1.475-3.273 3.165-6.254 5.04-8.928 1.879-2.679 3.946-5.051 6.171-7.102a36.917 36.917 0 0 1 7.14-5.181 33.487 33.487 0 0 1 7.935-3.157 33.442 33.442 0 0 1 4.598-.837 34.51 34.51 0 0 1 4.774-.192c1.616.046 3.253.203 4.908.473a40.524 40.524 0 0 1 6.028 1.469 60.391 60.391 0 0 1 1.018.343 846.26 846.26 0 0 1 26.149 9.633c9.393 3.643 19.238 7.673 28.963 11.997 9.779 4.347 19.435 8.99 28.377 13.826 8.986 4.86 17.243 9.91 24.166 15.042 8.592 6.37 18.408 16.44 28.677 28.578 10.311 12.189 21.075 26.46 31.506 41.155 10.47 14.749 20.597 29.916 29.583 43.814a1650.542 1650.542 0 0 1 22.758 36.246l47.056 15.931-1.556-.689z" fill="#9fc7fe"/><path d="M380.799 54.93c-5.284 25.637-9.268 59.691-12.65 97.641l6.172 2.068 7.863-2.134a24.916 24.916 0 0 0 7.028-3.157c2.211-1.431 4.274-3.231 6.154-5.379 1.884-2.152 3.583-4.652 5.063-7.479 1.483-2.831 2.745-5.989 3.751-9.45l24.177-83.351-47.559 11.242z" fill="#231f20" opacity=".5"/><path d="M776.199 476.557a139.1 139.1 0 0 0-12.475-30.685c-5.269-9.499-11.538-18.075-18.481-25.161-6.919-7.06-14.496-12.627-22.411-16.148a49.762 49.762 0 0 0-7.747-2.734 40.18 40.18 0 0 0-7.387-1.217 34.296 34.296 0 0 0-6.961.225c-.354.048-.703.112-1.053.173 0 0-40.489 14.731-41.223 15.014-4.738 1.434-9.037 3.969-12.775 7.482-4.966 4.667-8.947 11.062-11.66 18.905-2.702 7.81-4.151 17.065-4.064 27.498.086 10.409 1.692 21.027 4.521 31.33a139.255 139.255 0 0 0 11.881 29.491c5.005 9.2 10.962 17.593 17.586 24.64 6.647 7.072 13.976 12.8 21.701 16.631 7.766 3.852 15.203 5.426 22.004 4.959a31.534 31.534 0 0 0 10.271-2.454l.659-.278 43.949-18.113a35.28 35.28 0 0 0 2.863-2.49c3.108-3.024 5.825-6.745 8.07-11.103 2.251-4.37 4.03-9.379 5.255-14.963 1.228-5.597 1.901-11.769 1.938-18.45.062-10.764-1.529-21.81-4.459-32.554zM85.095 376.419c6.872 3.058 13.526 8.136 19.671 14.708 6.164 6.593 11.805 14.68 16.628 23.72 4.83 9.054 8.831 19.047 11.71 29.429 2.878 10.379 4.629 21.126 4.966 31.686s-.767 19.871-3.044 27.722-5.697 14.16-10.021 18.751c-4.304 4.57-9.493 7.405-15.306 8.248-5.785.839-12.187-.294-18.956-3.65-6.736-3.341-13.205-8.573-19.14-15.168-5.917-6.574-11.312-14.513-15.922-23.301-4.603-8.774-8.43-18.41-11.215-28.401-2.786-9.994-4.535-20.361-4.974-30.6-.44-10.261.477-19.438 2.517-27.256 2.048-7.847 5.231-14.333 9.316-19.168 4.104-4.857 9.12-8.05 14.811-9.278 5.72-1.234 12.121-.483 18.96 2.559z" fill="#231f20"/><path d="m57.466 236.599 31.741 9.415 261.783-70.802 17.158-22.641c3.21-48.084 12.208-99.798 22.892-152.572L73.787 74.032c-10.704 53.244-16.38 107.39-16.321 162.567z" fill="#231f20" opacity=".2"/><path d="m367.865 498.444 315.176-108.036c-5.404 1.939-10.381 4.879-14.815 8.711s-8.3 8.523-11.533 14.01c-3.222 5.469-5.802 11.718-7.626 18.647-1.82 6.91-2.891 14.5-3.101 22.674a20.73 20.73 0 0 0-.007.433l-.002.434v.864L337.034 571.442c-.562-.8-1.051-1.699-1.052-1.853-.082-8.743-1.307-20.828.222-28.155 1.533-7.348 3.826-13.94 6.772-19.672 2.957-5.752 6.574-10.641 10.747-14.559 4.189-3.934 8.939-6.89 14.142-8.758z" fill="#fd98a4"/><path d="M406.368 519.368c8.482 3.774 16.603 9.741 24.019 17.307 7.442 7.594 14.16 16.786 19.808 26.966 5.657 10.198 10.228 21.368 13.37 32.887s4.845 23.354 4.78 34.89c-.066 11.508-1.886 21.602-5.112 29.994-3.212 8.357-7.814 15.015-13.457 19.705-5.614 4.665-12.256 7.379-19.585 7.882-7.29.5-15.26-1.187-23.584-5.315-8.279-4.106-16.135-10.245-23.259-17.824-7.099-7.552-13.484-16.548-18.848-26.408s-9.703-20.569-12.734-31.608c-3.032-11.043-4.753-22.423-4.845-33.578-.093-11.182 1.46-21.101 4.356-29.471 2.908-8.405 7.175-15.259 12.497-20.261 5.35-5.027 11.769-8.187 18.949-9.163 7.219-.982 15.208.244 23.644 3.998z" fill="#231f20"/><path d="M457.634 664.228c-2.407 4.671-5.318 8.659-8.649 11.9-3.321 3.23-4.873 4.032-8.132 10.398l48.152-19.867a37.37 37.37 0 0 0 3.068-2.669c3.332-3.241 6.243-7.229 8.649-11.9 2.413-4.684 4.319-10.052 5.632-16.036 1.316-5.999 2.037-12.613 2.078-19.774.066-11.536-1.639-23.375-4.78-34.89a149.112 149.112 0 0 0-13.37-32.887c-5.647-10.18-12.366-19.372-19.808-26.966-7.416-7.566-15.537-13.533-24.019-17.307-2.822-1.256-5.593-2.228-8.303-2.93a43.177 43.177 0 0 0-7.917-1.304 36.723 36.723 0 0 0-7.46.242c-.379.052-.753.121-1.129.185l-45.895 16.661c2.219-.805 4.535 1.621 6.935 1.292a36.723 36.723 0 0 1 7.46-.242c2.569.173 5.212.604 7.917 1.304 2.71.702 5.481 1.675 8.303 2.93 8.482 3.774 13.604 6.741 21.019 14.307 7.442 7.594 14.16 16.786 19.808 26.966a149.092 149.092 0 0 1 13.37 32.887c3.141 11.515 4.845 23.354 4.78 34.89-.041 7.16-.761 13.775-2.078 19.774-1.313 5.985-3.219 8.353-5.632 13.036zM129.062 510.707c-2.109 4.574-4.715 8.41-7.731 11.423-3.007 3.003-3.422 6.189-7.162 7.473l46.909-16.113a29.669 29.669 0 0 0 2.477-2.209c3.017-3.013 5.622-6.849 7.731-11.423 2.115-4.587 3.731-9.915 4.761-15.895 1.033-5.994 1.477-12.641 1.247-19.85-.337-10.56-2.088-21.307-4.966-31.686-2.879-10.382-6.88-20.375-11.71-29.429-4.823-9.04-10.463-17.126-16.628-23.72-6.144-6.572-12.798-11.65-19.67-14.708a38.957 38.957 0 0 0-5.622-2.02 31.652 31.652 0 0 0-5.378-.987 26.937 26.937 0 0 0-5.104.002 24.855 24.855 0 0 0-4.798.947l-39.224 11.849c2.719 2.579 3.147 2.213 4.798 2.053a26.937 26.937 0 0 1 5.104-.002c1.75.162 3.544.488 5.378.987a39 39 0 0 1 5.622 2.02c6.872 3.058 9.526 5.136 15.67 11.708 6.164 6.594 11.805 14.68 16.628 23.72 4.83 9.054 8.831 19.047 11.71 29.429 2.878 10.379 4.629 21.126 4.966 31.686.23 7.208.786 12.855-.247 18.85-1.03 5.981-2.646 11.308-4.761 15.895z" fill="#231f20"/><path d="m717.514 269.606-302.05-101.184-47.315-15.85-13.179 21.564L87.558 246.46l-30.092-9.861 19.184 24.875 274.91 119.819 93.878 10.696 317.575-107.141z" fill="#1e65fd"/><g fill="#9fc7fe"><path d="m309.96 148.521 60.358-18.581c18.751-5.772 38.864 8.001 44.925 30.765l24.997 93.883c6.061 22.763-4.226 45.896-22.977 51.669l-60.358 18.581c-18.751 5.772-38.864-8.001-44.925-30.765l-24.997-93.883c-6.061-22.763 4.226-45.896 22.977-51.669zm-144.293 44.421 60.358-18.581c18.751-5.772 38.864 8.001 44.925 30.765l24.997 93.883c6.061 22.763-4.226 45.896-22.977 51.669l-60.358 18.581c-18.751 5.772-38.864-8.001-44.925-30.765l-24.997-93.883c-6.061-22.763 4.226-45.896 22.977-51.669zm328.293-20.421 60.358-18.581c18.751-5.772 38.864 8.001 44.925 30.765l24.997 93.883c6.061 22.763-4.226 45.896-22.977 51.669l-60.358 18.581c-18.751 5.772-38.864-8.001-44.925-30.765l-24.997-93.883c-6.061-22.763 4.226-45.896 22.977-51.669z"/><path d="m349.667 216.942 60.358-18.581c18.751-5.772 38.864 8.001 44.925 30.765l24.997 93.883c6.061 22.763-4.226 45.896-22.977 51.669l-60.358 18.581c-18.751 5.772-38.864-8.001-44.925-30.765l-24.997-93.883c-6.061-22.763 4.226-45.896 22.977-51.669z"/><path d="M198.906 113.131c20.442 6.99 40.185 17.949 59.321 32.114 19.344 14.318 38.019 31.874 56.145 51.866 18.281 20.164 35.966 42.764 53.195 66.982 17.348 24.383 36.209 53.37 52.746 80.138 2.402 3.888 4.827 7.794 7.262 11.723 2.437 3.931 4.885 7.884 7.329 11.86 2.446 3.979 4.889 7.981 7.315 12.008 2.428 4.03 1.74 6.211 3.219 12.167l-24.262 2.282-20.831-20.343a1974.827 1974.827 0 0 0-23.514-39.815c-9.266-15.269-19.688-31.939-30.427-48.165-10.696-16.162-21.698-31.873-32.181-45.324-10.436-13.39-20.354-24.536-28.946-31.659-6.92-5.737-15.133-11.425-24.045-16.929-8.865-5.475-18.413-10.762-28.065-15.732-9.595-4.941-19.289-9.569-28.529-13.764a826.492 826.492 0 0 0-25.679-11.124 40.273 40.273 0 0 0-1.993-.766c-4.664-1.659-9.201-2.319-13.507-2.035-4.292.283-8.355 1.502-12.088 3.602s-7.114 5.06-10.081 8.847-5.492 8.365-7.507 13.717l-30.226 80.279-24.244 2.29-21.848-20.75c3.861 1.252 7.587 1.571 11.081 1.016s6.776-1.991 9.716-4.242c2.949-2.258 5.564-5.336 7.746-9.173s3.939-8.455 5.153-13.758l20.208-88.533-41.916-21.725c.357-2.168.718-4.339 1.08-6.512l1.089-6.531c.363-2.181.727-4.363 1.088-6.547s.721-4.372 1.076-6.56l16.198 1.855 108.92 37.245z"/></g><path d="m69.454 100.183 41.916 21.725-20.208 88.533c-1.214 5.303-2.965 9.911-5.153 13.753-2.182 3.831-4.796 6.9-7.744 9.136-2.939 2.23-6.21 3.633-9.713 4.142-3.493.508-7.217.126-11.075-1.21.31-9.963.652-19.739 1.006-28.916.355-9.201.722-17.798 1.079-25.374.358-7.593.706-14.156 1.022-19.271.317-5.122.601-8.786.833-10.572a837.448 837.448 0 0 1 1.796-13.046c.631-4.34 1.29-8.665 1.97-12.983s1.383-8.641 2.097-12.955c.715-4.321 1.443-8.641 2.175-12.963zm107.513 50.465.497.18a33.652 33.652 0 0 1 .997.383c.167.066.333.134.499.203a825.453 825.453 0 0 1 25.679 11.124c9.239 4.195 18.934 8.823 28.529 13.764 9.652 4.971 19.199 10.257 28.065 15.732 8.912 5.504 17.125 11.193 24.045 16.929 8.592 7.123 18.51 18.268 28.946 31.659 10.483 13.451 21.485 29.163 32.181 45.324 10.739 16.227 21.162 32.896 30.427 48.165a1987.214 1987.214 0 0 1 23.514 39.815L103.557 255.059l30.226-80.279c2.015-5.352 4.55-9.942 7.507-13.717s6.36-6.754 10.081-8.847 7.796-3.319 12.088-3.602c4.306-.284 8.843.376 13.507 2.035z" fill="#231f20" opacity=".5"/><path d="M631.327 373.623c-22.286 0-45.914-19.138-56.864-48.213-13.13-34.862-3.137-71.011 22.275-80.581 25.412-9.573 56.769 11.003 69.899 45.865 13.129 34.862 3.136 71.012-22.275 80.582-4.218 1.589-8.601 2.347-13.035 2.347zm-47.507-51.738c11.187 29.702 36.766 47.657 57.018 40.034 20.251-7.628 27.628-37.998 16.441-67.7-11.187-29.701-36.769-47.657-57.016-40.032-20.253 7.628-27.629 37.997-16.443 67.699z" fill="#f7dbda"/><path d="m621.796 321.9-49.561-27.112 4.799-8.774 39.262 21.478 16.691-47.071 9.426 3.341z" fill="#f7dbda"/><path d="m445.438 391.989 5.321-6.132 305.245-102.981 7.01 1.972c6.489 10.479 12.733 21.164 18.419 32.094 5.694 10.946 10.824 22.13 15.074 33.585 4.252 11.46 7.618 23.177 9.783 35.178 2.163 11.988 3.124 24.24 2.573 36.771L495.126 541.941c.117-13.464-7.242-26.69-9.773-39.682-2.534-13.007-6.238-25.757-10.803-38.264-4.563-12.502-9.981-24.744-15.943-36.75-5.953-11.988-6.445-23.729-13.169-35.256z" fill="#fd98a4"/><path d="m201.906 116.131 310.212-80.202c20.856 5.944 40.832 15.594 60.056 28.235 19.416 12.766 38.018 28.552 55.96 46.607 18.083 18.197 35.461 38.665 52.309 60.638 16.954 22.111 33.348 45.716 49.378 70.046 2.328 3.533 4.678 7.082 7.038 10.651s4.733 7.162 7.1 10.774c2.369 3.615 4.733 7.251 7.079 10.91 2.348 3.662 2.678 5.348 4.975 9.058L449.438 387.989c-2.38-4.081-3.791-4.137-6.219-8.167a1567.115 1567.115 0 0 0-7.315-12.008 3594.295 3594.295 0 0 0-7.329-11.86c-2.435-3.928-4.861-7.835-7.262-11.723-16.537-26.768-33.398-52.755-50.746-77.138-17.23-24.217-34.914-46.818-53.195-66.982-18.125-19.992-36.801-37.548-56.145-51.866-19.137-14.164-38.879-25.124-59.321-32.114z" fill="#231f20" opacity=".5"/><path d="M756.038 273.789c-2.346-3.659-4.71-7.295-7.079-10.91a3111.592 3111.592 0 0 0-7.1-10.774c-2.36-3.569-4.711-7.118-7.038-10.651-16.029-24.33-32.424-47.935-49.378-70.046-16.848-21.972-34.226-42.441-52.309-60.638-17.942-18.055-36.544-33.841-55.96-46.607-19.224-12.64-39.2-22.291-60.056-28.235L391.041 0 73.787 74.032l123.119 42.1c20.442 6.99 40.185 17.949 59.321 32.114 19.344 14.318 38.019 31.874 56.145 51.866 18.281 20.164 35.966 42.764 53.195 66.981 17.348 24.384 34.209 50.37 50.746 77.138 2.402 3.888 4.827 7.794 7.262 11.723 2.437 3.931 4.885 7.884 7.329 11.86 2.446 3.979 4.889 7.981 7.315 12.008a983.82 983.82 0 0 1 7.219 12.167l317.575-107.141a822.456 822.456 0 0 0-6.975-11.058zm-304.77 102.513c-.625-1.044-1.262-2.106-1.914-3.188-2.228-3.698-4.64-7.659-7.376-12.109-2.453-3.99-4.909-7.956-7.354-11.902l-1.611-2.598c-1.89-3.048-3.773-6.083-5.641-9.107-18.5-29.946-35.252-55.408-51.213-77.842-18.776-26.391-36.49-48.692-54.157-68.177-19.428-21.429-38.956-39.457-58.042-53.584-9.212-6.818-18.495-12.86-27.797-18.096l280.67-70.298c17.705 5.432 35.584 14.043 53.198 25.624 17.717 11.649 35.844 26.759 53.881 44.908 16.733 16.839 33.486 36.264 51.214 59.385 15.246 19.883 31.221 42.547 48.839 69.288 1.807 2.743 3.629 5.497 5.458 8.261l1.593 2.408c2.352 3.556 4.713 7.132 7.07 10.728a1424.58 1424.58 0 0 1 5.088 7.816L451.269 376.3z" fill="#f7dbda"/><path d="m495.125 541.941 313.738-119.465-4.246 96.51-310.393 126.533-4.921-10.017.704-80.963z" fill="#1e65fd"/><path d="m586.279 546.278 143.764-55.771-1.188 49.708-143.738 57.396z" fill="#fefdfd"/><path d="M534.713 543.512c-16.326 6.457-26.805 21.034-27.677 38.591l-.562 11.311-.562 11.311c-.607 12.227 13.528 22.032 24.894 17.343 16.219-6.691 26.516-21.238 27.38-38.591l.557-11.181.557-11.182c.602-12.089-13.285-22.072-24.588-17.602zm243.978-93.709c-14.61 5.788-24.018 19.381-24.854 35.99l-.538 10.701-.538 10.7c-.582 11.567 12.014 21.15 22.187 16.947 14.52-5.999 23.774-19.57 24.603-35.996l.534-10.584.534-10.585c.577-11.444-11.809-21.181-21.927-17.173z" fill="#fd98a4"/><path d="M445.438 391.989c6.724 11.527 13.215 23.269 19.169 35.256 5.962 12.006 11.38 24.248 15.943 36.75 4.565 12.507 8.269 25.257 10.803 38.264 2.531 12.992 3.89 26.219 3.773 39.682l-.901 103.578-15.138-7.134.015-.468.016-.47a36.668 36.668 0 0 0 .021-.948c.094-13.544-1.9-27.451-5.587-40.98a174.449 174.449 0 0 0-15.719-38.629c-6.641-11.95-14.541-22.729-23.289-31.621-8.711-8.855-18.245-15.82-28.196-20.203-9.888-4.356-19.241-5.743-27.685-4.547-8.39 1.189-15.882 4.931-22.118 10.85-6.199 5.885-11.16 13.926-14.535 23.769-3.359 9.796-5.151 21.39-5.028 34.449.001.154.004.308.008.463l.014.465.016.464.015.461-190.214-89.642a61.355 61.355 0 0 1-.007-.86l-.005-.433c-.002-.145-.006-.29-.01-.436-.383-12.396-2.433-25.016-5.812-37.205-3.38-12.194-8.083-23.929-13.761-34.556-5.668-10.607-12.297-20.088-19.539-27.807-7.214-7.69-15.022-13.617-23.079-17.166-2.5-1.101-4.95-1.941-7.341-2.53s-4.714-.926-6.974-1.025a30.511 30.511 0 0 0-6.558.406 28.69 28.69 0 0 0-6.092 1.764l-1.119-27.608c-.219-5.402-.341-11.895-.384-19.168-.043-7.286-.006-15.359.095-23.905.101-8.566.265-17.61.475-26.816.211-9.229.47-18.621.758-27.856l46.091 18.46 296.787 118.869 45.093 18.061z" fill="#1e65fd"/><path d="M406.401 542.142c6.148 2.779 12.027 7.136 17.39 12.641 5.377 5.519 10.229 12.185 14.307 19.557a108.48 108.48 0 0 1 9.659 23.787c2.273 8.326 3.515 16.89 3.484 25.241s-1.327 15.659-3.64 21.76c-2.305 6.083-5.618 10.946-9.69 14.389-4.057 3.43-8.865 5.448-14.181 5.861-5.295.411-11.093-.77-17.157-3.736-6.041-2.955-11.78-7.404-16.988-12.915-5.195-5.498-9.87-12.059-13.797-19.261a108.52 108.52 0 0 1-9.32-23.11c-2.215-8.076-3.465-16.396-3.518-24.545-.053-8.164 1.101-15.396 3.239-21.486 2.144-6.109 5.278-11.076 9.179-14.684 3.916-3.621 8.606-5.876 13.842-6.539 5.257-.666 11.065.272 17.189 3.04zM85.877 397.26c4.985 2.253 9.806 5.963 14.253 10.746 4.458 4.794 8.535 10.661 12.021 17.209 3.489 6.556 6.381 13.787 8.465 21.298 2.084 7.509 3.357 15.286 3.613 22.934.255 7.634-.528 14.407-2.159 20.114-1.627 5.691-4.095 10.317-7.216 13.681s-6.867 5.451-11.082 6.103c-4.201.649-8.858-.137-13.788-2.548-4.912-2.403-9.635-6.194-13.971-10.989-4.326-4.784-8.274-10.573-11.646-16.988s-6.168-13.451-8.202-20.754c-2.035-7.305-3.306-14.881-3.616-22.357s.374-14.18 1.88-19.869 3.848-10.409 6.841-13.902c3.003-3.505 6.668-5.792 10.819-6.647 4.166-.858 8.822-.274 13.788 1.971z" fill="#9fc7fe"/></svg></g><g transform="translate(1570.0 1252.0) rotate(0.0 171.0 115.0) scale(2.0001637560969905 2.009979987590558)"><svg width="170.986" height="114.429" viewBox="0 0 170.986 114.429"><path d="m32.368 29.347 12.742 76.456-3.651 8.626L0 93.937l15.545-64.893z" fill="#1e65fd"/><path d="M15.545 29.044 145.938 0l8.945 3.969-3.659 6.269L29.496 37.54l-5.071-4.311z" fill="#f7dbda"/><path d="m24.425 33.229 130.458-29.26 16.103 78.635-129.527 31.825z" fill="#fd98a4"/><path d="m24.425 33.229 130.458-29.26 16.103 78.635-129.527 31.825z" fill="none"/><g fill="#231f20"><path d="m144.541 71.538 16.368-3.947-4.547-22.176-16.4 3.856zm-33.16 7.997 16.649-4.015-4.612-22.359-16.683 3.923zM77.648 87.67l16.941-4.085-4.68-22.545-16.975 3.991zM43.33 95.946l17.234-4.156-4.749-22.734-17.269 4.061z"/><path d="m123.418 53.161 16.544-3.89-4.586-22.298-16.578 3.798zM89.909 61.04l16.826-3.956-4.653-22.484-16.86 3.863zm-34.094 8.016 17.119-4.025-4.721-22.671-17.154 3.93z"/></g></svg></g><g transform="translate(686.0 804.0) rotate(0.0 91.0 127.0) scale(2.0208749722407284 2.0041345137212203)"><svg width="90.06" height="126.738" viewBox="0 0 90.06 126.738"><ellipse cx="43.498" cy="112.488" fill="#231f20" opacity=".5" rx="43.498" ry="14.249"/><path d="m48.857 65.507-11.4-12.18c2.093.92 4.457 1.311 6.968 1.047l21.641 5c-2.511.264-15.115 7.053-17.209 6.134z" fill="#fd98a4"/><path d="m52.127 19.872 17.395 5.445c5.284 2.321 8.84 8.01 8.696 15.042-.2 9.811-13.345 25.489-21.398 19.459l-12.395-5.445c8.859-.931 16.198-9.648 16.398-19.459.144-7.032-3.412-12.721-8.696-15.042z" fill="#231f20"/><path d="M59.825 2.312 72.22 7.757c-4.279 1.183-10.884 2.004-16.036 2.546L45.532.166c5.152-.541 10 .26 14.293 2.146z" fill="#fd98a4"/><path d="m55.664 116.425-12.395-5.445c-1.588-2.54-31.761-50.805-31.35-70.927C12.33 19.932 27.378 2.074 45.532.166l12.395 5.445s-1.628 2.757-3.84 3.503C39.138 14.16 27.672 27.97 27.314 45.498c-.334 16.359 19.546 51.319 27.847 65.187 0 0 .206 5.264.503 5.739z" fill="#231f20"/><path d="M57.926 5.611c18.153-1.908 32.535 12.857 32.125 32.978-.411 20.122-32.689 74.95-34.387 77.836-1.588-2.54-31.761-50.805-31.35-70.927S39.773 7.518 57.927 5.61zM56.82 59.818c8.859-.931 16.198-9.648 16.398-19.459.201-9.82-6.813-17.02-15.672-16.089-8.851.93-16.198 9.639-16.398 19.459-.2 9.811 6.821 17.019 15.672 16.089" fill="#1e65fd"/></svg></g><g transform="translate(1748.0 650.0) rotate(0.0 217.0 219.0) scale(2.659851563122445 2.651299621069963)"><svg width="163.167" height="165.202" viewBox="0 0 163.167 165.202"><path d="M163.162 85.558c-.36 34.07-20.54 61.78-48.67 71.42l-13.3 4.56c5.69-2.44 8.443-4.835 13.532-8.336 19.187-13.2 31.853-36.156 32.138-63.084.24-22.62-8.3-43.66-22.24-59.21-13.33-14.89-.06-21.02 12.9-8.14 15.93 15.82 25.899 38.39 25.64 62.79z" fill="#231f20"/><path d="m89.082.178-.003-.004c-9.536-.667-18.675.601-27.101 3.489l-13.3 4.558c8.426-2.888 17.565-1.155 27.101-.488l.012-.004c18.987 1.335 36.239 10.105 49.306 23.479.86.88 1.702-1.22 2.525-.3l9.9-8.14c-12.96-12.88-29.871-21.291-48.44-22.59z" fill="#1e65fd"/><path d="M75.778 4.733c41.38 2.894 74.548 41.124 74.081 85.388-.467 44.263-34.393 77.802-75.773 74.908S-.463 123.905.004 79.642C.472 35.378 34.398 1.839 75.778 4.733z" fill="#9fc7fe"/><path d="M75.778 4.733c41.38 2.894 74.548 41.124 74.081 85.388-.467 44.263-34.393 77.802-75.773 74.908S-.463 123.905.004 79.642C.472 35.378 34.398 1.839 75.778 4.733z" fill="none"/><path d="M106.643 43.512 66.984 95.199 43.015 59.631l-17.42 12.987 40.985 60.818 57.184-74.521z" fill="#e6ecf4"/></svg></g></svg>