<svg xmlns="http://www.w3.org/2000/svg" xmlns:ns1="http://www.w3.org/1999/xlink" fill="none" viewBox="0 0 3000 3000" width="3000" height="3000"><defs><clipPath id="assetClipPath_J99qKrJz"><path d="m0 0 h 1224.326 v 1253.096 h -1224.326 v -1253.096 z" id="path_w84WZfDV" fill="#ffffff" /></clipPath><clipPath id="assetClipPath_RAqdESah"><path d="m0 0 h 2158.016 v 1273.344 h -2158.016 v -1273.344 z" id="path_GrXCinmC" fill="#ffffff" /></clipPath><clipPath id="assetClipPath_53an2mMV"><path d="m0 0 h 927.581 v 1209.94 h -927.581 v -1209.94 z" id="path_6wp5g-At" fill="#ffffff" /></clipPath><clipPath id="assetClipPath_yuih-yKk"><path d="m0 0 h 169.213 v 176.922 h -169.213 v -176.922 z" id="path_axu_d-aC" fill="#ffffff" /></clipPath><clipPath id="assetClipPath_lw9DgiCN"><path d="m0 0 h 818.953 v 487.886 h -818.953 v -487.886 z" id="path_eSxN8FkH" fill="#ffffff" /></clipPath><clipPath id="assetClipPath_xFqaZzN6"><path d="m0 0 h 267.59 v 10.775 h -267.59 v -10.775 z" id="path_VvjcWsyj" fill="#ffffff" /></clipPath><clipPath id="assetClipPath_o5d1g-pg"><path d="m0 0 h 724.453 v 757.72 h -724.453 v -757.72 z" id="path_jQ6RgvYV" fill="#ffffff" /></clipPath></defs><g transform="translate(855 623)" data-asset-index="0"><g clip-path="url(#assetClipPath_J99qKrJz)" transform="scale(1.1998438324433198 1.1998438324433198)" data-asset-index="0"><path d="m137.457 0v115.08h-137.457v3.197h137.457v140.654h-137.457v3.197h137.457v134.26h-137.457v3.197h137.457v121.474h-137.457v3.197h137.457v140.654h-137.457v3.197h137.457v134.26h-137.457v3.197h137.457v140.654h-137.457v3.197h137.457v140.654h-137.457v3.197h137.457v159.834h3.197v-159.834h137.457v159.834h3.197v-159.834h140.654v159.834h3.197v-159.834h134.26v159.834h3.197v-159.834h121.474v159.834h3.197v-159.834h140.654v159.834h3.197v-159.834h134.263v159.834h3.197v-159.834h131.064v159.834h3.197v-159.834h121.47v-3.197h-121.47v-140.654h121.47v-3.197h-121.47v-140.654h121.47v-3.197h-121.47v-134.26h121.47v-3.197h-121.47v-140.654h121.47v-3.197h-121.47v-121.474h121.47v-3.197h-121.47v-134.26h121.47v-3.197h-121.47v-140.654h121.47v-3.197h-121.47v-115.08h-3.197v115.08h-131.064v-115.08h-3.197v115.08h-134.263v-115.08h-3.197v115.08h-140.654v-115.08h-3.197v115.08h-121.474v-115.08h-3.197v115.08h-134.26v-115.08h-3.197v115.08h-140.654v-115.08h-3.197v115.08h-137.457v-115.08zm962.202 1090.065v-140.654h-131.064v140.654zm-134.26 0v-140.654h-134.263v140.654zm-137.46 0v-140.654h-140.654v140.654zm-143.85 0v-140.654h-121.474v140.654zm-124.67 0v-140.654h-134.26v140.654zm-137.457 0v-140.654h-140.654v140.654zm-143.85 0v-140.654h-137.457v140.654zm0-143.85h-137.457v-140.654h137.457zm143.85 0h-140.654v-140.654h140.654zm137.457 0h-134.26v-140.654h134.26zm124.67 0h-121.474v-140.654h121.474zm143.85 0h-140.654v-140.654h140.654zm137.46 0h-134.263v-140.654h134.263zm134.26 0h-131.064v-140.654h131.064zm0-143.85v-134.26h-131.064v134.26zm-134.26 0v-134.26h-134.263v134.26zm-137.46 0v-134.26h-140.654v134.26zm-143.85 0v-134.26h-121.474v134.26zm-124.67 0v-134.26h-134.26v134.26zm-137.457 0v-134.26h-140.654v134.26zm-143.85 0v-134.26h-137.457v134.26zm-137.457-281.307v-121.474h137.457v121.474zm0-124.67h137.457v-134.26h-137.457zm140.654 124.67v-121.474h140.654v121.474zm0-124.67h140.654v-134.26h-140.654zm143.85 124.67v-121.474h134.26v121.474zm0-124.67h134.26v-134.26h-134.26zm137.457 124.67v-121.474h121.474v121.474zm0-124.67h121.474v-134.26h-121.474zm124.67 124.67v-121.474h140.654v121.474zm0-124.67h140.654v-134.26h-140.654zm143.85 124.67v-121.474h134.263v121.474zm0-124.67h134.263v-134.26h-134.263zm137.46 124.67v-121.474h131.064v121.474zm0-124.67h131.064v-134.26h-131.064zm131.064 268.52v-140.654h-131.064v140.654zm-134.26 0v-140.654h-134.263v140.654zm-137.46 0v-140.654h-140.654v140.654zm-143.85 0v-140.654h-121.474v140.654zm-124.67 0v-140.654h-134.26v140.654zm-137.457 0v-140.654h-140.654v140.654zm-143.85 0v-140.654h-137.457v140.654zm-137.457-405.977h137.457v-140.654h-137.457zm140.654 0h140.654v-140.654h-140.654zm143.85 0h134.26v-140.654h-134.26zm137.457 0h121.474v-140.654h-121.474zm124.67 0h140.654v-140.654h-140.654zm143.85 0h134.263v-140.654h-134.263zm137.46 0h131.064v-140.654h-131.064z" fill="#FFFFFF" fill-rule="evenodd" id="crrNGYTbaeLWiwGRmk-PM" /></g></g><g transform="translate(15 658)" data-asset-index="1"><g clip-path="url(#assetClipPath_RAqdESah)" transform="scale(1.3382662593789851 1.3382662593789851)" data-asset-index="1"><linearGradient id="linearGradient_egAiFhic" gradientTransform="matrix(1 0 0 -1 952.5 4090.424)" gradientUnits="userSpaceOnUse" x1="-952.5" x2="1205.516" y1="3453.752" y2="3453.752"><stop offset="0" stop-color="#EC4940" stop-opacity="0" /><stop offset=".49" stop-color="#EC4940" /><stop offset="1" stop-color="#EC4940" stop-opacity="0" /></linearGradient><path d="m0 1273.344s197.432-847.992 341.045-1080.252c143.612-232.261 378.271-260.648 522.162-54.333 143.891 206.314 287.712 670.415 431.603 747.973 143.891 77.561 287.712-232.05 431.603-309.4 143.891-77.349 287.712 77.349 359.658 154.701l71.946 77.14v464.171z" fill="url(#linearGradient_egAiFhic)" fill-rule="evenodd" id="TrXxrp5CsN0pJXUbgp6BQ" /></g></g><g transform="translate(327 713)" data-asset-index="2"><g clip-path="url(#assetClipPath_53an2mMV)" transform="scale(1.3626842291940002 1.3626842291940002)" data-asset-index="2"><linearGradient id="linearGradient_22S_ERHZ" gradientTransform="matrix(1 0 0 -1 952.5 21763.442)" gradientUnits="userSpaceOnUse" x1="-47.215" x2="-751.146" y1="21757.788" y2="20747.546"><stop offset="0" stop-color="#AE9999" /><stop offset="1" stop-color="#D2BCBC" /></linearGradient><path d="m310.802 0h584.156c20.595 0 36.034 18.856 31.97 39.047l-230.388 1144.714c-3.062 15.227-16.44 26.178-31.97 26.178h-599.331c-20.768 0-36.243-19.15-31.889-39.452l245.563-1144.715c3.225-15.033 16.512-25.772 31.889-25.772z" fill="url(#linearGradient_22S_ERHZ)" id="bA9Y7-k8Bg0b29Ypliw_" /><path d="m278.189 0h584.156c20.595 0 36.034 18.856 31.97 39.047l-230.388 1144.714c-3.062 15.227-16.44 26.178-31.97 26.178h-599.331c-20.768 0-36.243-19.15-31.889-39.452l245.563-1144.715c3.225-15.033 16.512-25.772 31.889-25.772z" fill="#1E0C0B" id="KuG7gT5ewSQ4h-dCa4Ecy" /><path d="m271.428 29.352h598.134l-228.447 1151.236h-616.228z" fill="#FFFAF9" id="Gsq658cKFW_iCXiFFVfl" /><path d="m484.664 96.689 130.709 1.019c9.813.077 18.342-6.735 20.432-16.324 2.815-12.894-6.966-25.104-20.161-25.173l-130.709-.683c-9.52-.05-17.833 6.435-20.099 15.68-3.163 12.903 6.545 25.378 19.829 25.481z" fill="#1E0C0B" id="xU63y54vFxqFDDfOfAs6u" /></g></g><g transform="translate(2057 1003) scale(-1 1)" data-asset-index="3"><g clip-path="url(#assetClipPath_yuih-yKk)" transform="scale(2.0506698657904536 2.0506698657904536)" data-asset-index="3"><linearGradient id="linearGradient_K9QloSd6" gradientTransform="matrix(1 0 0 -1 952.5 14306.88)" gradientUnits="userSpaceOnUse" x1="-900.716" x2="-850.795" y1="14299.162" y2="14156.686"><stop offset="0" stop-color="#EC4940" /><stop offset="1" stop-color="#FFCAB3" /></linearGradient><linearGradient id="linearGradient_-rBbtZW9" x1="-951.56" x2="-822.955" ns1:href="#linearGradient_K9QloSd6" y1="14195.941" y2="14130.269" /><linearGradient id="linearGradient_u2NunS7M" x1="-810.469" x2="-820.795" ns1:href="#linearGradient_K9QloSd6" y1="14216.328" y2="14129.616" /><linearGradient id="linearGradient_KKgUIVZD" gradientTransform="matrix(1 0 0 -1 952.5 14306.88)" gradientUnits="userSpaceOnUse" x1="-817.963" x2="-931.003" y1="14228.141" y2="14164.413"><stop offset="0" stop-color="#EC4940" /><stop offset="1" stop-color="#FFC7B0" /></linearGradient><linearGradient id="linearGradient_Trv6Ngq1" gradientTransform="matrix(1 0 0 -1 952.5 14306.88)" gradientUnits="userSpaceOnUse" x1="-934.428" x2="-913.103" y1="14168.501" y2="14305.524"><stop offset="0" stop-color="#EC4940" /><stop offset="1" stop-color="#FFC7B0" stop-opacity="0.99" /></linearGradient><linearGradient id="linearGradient_7FGF2ql2" x1="-912.249" x2="-783.249" ns1:href="#linearGradient_KKgUIVZD" y1="14306.805" y2="14240.931" /><path d="m150.606 40.071-110.436-39.856-39.761 110.563 110.79 39.729z" fill="url(#linearGradient_K9QloSd6)" id="I2NqN4llgwNR_zN86n0kr" /><path d="m.479 110.862 110.662 39.63 18.442 25.977-110.662-39.63z" fill="url(#linearGradient_-rBbtZW9)" id="MOgDFABhaxi6edPx885GI" /><path d="m110.894 150.73 39.633-110.659 18.366 26.189-39.633 110.662z" fill="url(#linearGradient_u2NunS7M)" id="jky9-TO9pXeSnliq44ntE" /><path d="m168.943 66.191-110.662-39.631-39.555 110.45 110.587 39.842 39.63-110.662z" fill="url(#linearGradient_KKgUIVZD)" fill-opacity=".8" id="M16gPiv5mTOl-jkIqKJLX" /><path d="m39.633 0 18.242 26.566-39.41 109.893-18.465-25.896z" fill="url(#linearGradient_Trv6Ngq1)" id="IVxey4g3JU1NDV9CzrJf" /><path d="m40.187.2 110.737 39.419 18.288 26.404-110.659-39.631z" fill="url(#linearGradient_7FGF2ql2)" id="VEu3SPMmZaQeSha23rnv9" /></g></g><g transform="translate(1752 1749)" data-asset-index="4"><g clip-path="url(#assetClipPath_lw9DgiCN)" transform="scale(1.2039762965640275 1.2039762965640275)" data-asset-index="4"><path d="m200.268 487.886c-39.743 0-72.084-31.68-73.152-71.165h-110.931c-8.94 0-16.185-7.248-16.185-16.185v-31.522c0-8.937 7.244-16.185 16.185-16.185h19.422v-352.829h548.87v61.502h86.058c16.068 0 31.985 4.289 46.833 12.621 14.845 8.335 28.336 20.548 39.701 35.947 11.365 15.398 20.38 33.677 26.527 53.798 6.153 20.118 9.316 41.679 9.316 63.458v125.504h9.857c8.941 0 16.185 7.248 16.185 16.185v31.522c0 8.937-7.244 16.185-16.185 16.185h-78.047c-1.068 39.485-33.412 71.165-73.155 71.165s-72.087-31.68-73.159-71.165h-304.981c-1.068 39.485-33.415 71.165-73.159 71.165zm489.207-73.554c0 21.451-17.389 38.844-38.844 38.844s-38.844-17.392-38.844-38.844 17.392-38.844 38.844-38.844 38.844 17.389 38.844 38.844zm-492.019 38.844c21.455 0 38.844-17.392 38.844-38.844s-17.389-38.844-38.844-38.844-38.844 17.389-38.844 38.844 17.392 38.844 38.844 38.844zm488.202-351.629-90.056-1.201v113.294h148.004c6.733 0 11.42-6.688 9.128-13.019l-25.074-69.2c-6.422-17.726-23.148-29.625-42.003-29.874z" fill="#FFFFFF" fill-rule="evenodd" id="vERNvcorGDKgrwHOTYQ6x" /></g></g><g transform="translate(1394 1980)" data-asset-index="5"><g clip-path="url(#assetClipPath_xFqaZzN6)" transform="scale(1.2108075787585486 1.2108075787585486)" data-asset-index="5"><g fill="#FFFFFF" id="dTIn56y-StkjwehLLPdzd"><path d="m0 0h57.469v10.775h-57.469z" fill="#FFFFFF" id="DSKNccyhF2z3TtdN_-9xC" /><path d="m70.042 0h57.469v10.775h-57.469z" fill="#FFFFFF" id="WxPUZKLV6pw1XlLWb0tOX" /><path d="m140.083 0h57.469v10.775h-57.469z" fill="#FFFFFF" id="FLaOii2AE_JwFDIYA7tVK" /><path d="m210.121 0h57.469v10.775h-57.469z" fill="#FFFFFF" id="wYHr0hWxxB7F6ZXmuq0g8" /></g></g></g><g transform="translate(517 1035)" data-asset-index="6"><g clip-path="url(#assetClipPath_o5d1g-pg)" transform="scale(1.196765007529819 1.196765007529819)" data-asset-index="6"><path d="m174.084 0h550.369l-133.512 572.911h-550.281z" fill="#EC4940" id="gFBERlbrIJCm1__RFRdGc" /><path d="m552.583 757.72 29.57-140.455h-550.735l-31.418 140.455z" fill="#EC4940" id="zVwORcypcry_9MUYfw_" /><g fill="#FFCAB3" fill-rule="evenodd" id="cjdOVN2XbkeAJMtBJK8vZ"><path d="m373.559 107.192h101.987c6.289 0 10.922 5.888 9.439 11.999l-4.263 17.57h22.406c8.94 0 16.185 7.244 16.185 16.185v252.238c0 8.937-7.244 16.185-16.185 16.185h-292.735c-11.886 0-19.716-12.381-14.628-23.118l119.567-252.238c2.68-5.649 8.374-9.251 14.628-9.251h28.793l5.37-22.147c1.055-4.357 4.956-7.422 9.436-7.422zm95.141 29.57h-98.171l4.409-18.483h98.174z" fill="#FFCAB3" id="x5RhH1EWtZ47SL0wjkg-j" /><path d="m366.218 661.099-11.087-17.962-94.329 58.845-25.873-33.933-16.855 12.825 36.963 48.386.592.958 110.588-69.119z" fill="#FFCAB3" id="kTKW2nbgiwrWWKNo4lur" /></g></g></g></svg>